<?xml version="1.0" encoding="iso-8859-1"?>
<!-- Generator: Adobe Illustrator 19.0.0, SVG Export Plug-In . SVG Version: 6.00 Build 0)  -->
<svg version="1.1" id="Capa_1" xmlns="http://www.w3.org/2000/svg" xmlns:xlink="http://www.w3.org/1999/xlink" x="0px" y="0px"
	 viewBox="0 0 512 512" style="enable-background:new 0 0 512 512;" xml:space="preserve">
<path style="fill:#AC7762;" d="M401.087,0H110.913c-14.503,0-27.86,7.975-34.64,20.796c-8.698,16.448-20.617,43.04-31.493,81.147
	c-28.728,100.65-28.728,207.465,0,308.115c10.876,38.107,22.795,64.699,31.493,81.147C83.053,504.025,96.41,512,110.913,512h290.174
	c14.503,0,27.86-7.975,34.64-20.796c8.698-16.448,20.617-43.04,31.493-81.147c28.728-100.65,28.728-207.465,0-308.115
	c-10.876-38.107-22.795-64.699-31.493-81.147C428.947,7.975,415.59,0,401.087,0z"/>
<g>
	<path style="fill:#A06955;" d="M467.217,410.053c-10.868,38.117-22.788,64.705-31.493,81.147
		c-6.779,12.826-20.13,20.799-34.635,20.799H384.7c4.347-3.42,8.015-7.757,10.693-12.815c8.993-17.008,21.314-44.504,32.564-83.898
		c29.7-104.069,29.7-214.504,0-318.572c-11.25-39.394-23.57-66.889-32.564-83.898c-2.678-5.058-6.346-9.395-10.693-12.815h16.39
		c14.505,0,27.856,7.974,34.635,20.799c8.705,16.442,20.624,43.031,31.493,81.147C495.949,202.596,495.949,309.404,467.217,410.053z
		"/>
	<path style="fill:#A06955;" d="M473.955,127.887h-38.034c-2.359-10.446-5.017-20.841-7.963-31.173
		c-3.369-11.775-6.82-22.489-10.261-32.183h37.323c0.505,1.37,1.02,2.761,1.525,4.183c0.237,0.639,0.464,1.288,0.701,1.937
		c0.907,2.565,1.823,5.202,2.73,7.922c0.319,0.937,0.628,1.875,0.948,2.833c0.587,1.782,1.174,3.595,1.751,5.439
		c0.258,0.804,0.515,1.607,0.762,2.421c1.277,4.079,2.534,8.303,3.781,12.681c0.309,1.071,0.608,2.153,0.906,3.224
		c0.247,0.876,0.495,1.751,0.731,2.627c0.052,0.206,0.113,0.402,0.165,0.608c0.587,2.153,1.164,4.316,1.72,6.48
		c0.021,0.051,0.031,0.103,0.041,0.154c0.196,0.762,0.391,1.514,0.587,2.277c0.628,2.442,1.236,4.893,1.823,7.345
		c0.227,0.948,0.453,1.895,0.67,2.843C473.893,127.63,473.924,127.764,473.955,127.887z"/>
</g>
<g>
	<path style="fill:#89503E;" d="M132.783,426.288c8.252,39.899,17.255,68.187,23.766,85.711h-16.493
		c-6.48-18.275-14.762-45.575-22.396-82.414c-23.498-113.567-23.498-233.603,0-347.159c7.634-36.86,15.916-64.149,22.396-82.425
		h16.493c-6.511,17.523-15.514,45.812-23.766,85.711C109.717,197.115,109.717,314.884,132.783,426.288z"/>
	<path style="fill:#89503E;" d="M394.324,429.585c-7.634,36.839-15.916,64.139-22.396,82.414h-16.493
		c6.511-17.523,15.514-45.812,23.766-85.711c23.066-111.404,23.066-229.173,0-340.577C370.949,45.812,361.945,17.524,355.435,0
		h16.493c6.48,18.275,14.762,45.565,22.396,82.425C417.822,195.981,417.822,316.018,394.324,429.585z"/>
	<path style="fill:#89503E;" d="M218.751,427.102c4.049,39.116,8.447,67.147,11.713,84.897h-15.731
		c-3.245-18.152-7.469-45.699-11.353-83.228c-11.692-113.031-11.692-232.511,0-345.542c3.884-37.529,8.107-65.076,11.353-83.228
		h15.731c-3.266,17.75-7.665,45.781-11.713,84.897C207.172,196.837,207.172,315.163,218.751,427.102z"/>
	<path style="fill:#89503E;" d="M308.603,428.771c-3.884,37.529-8.107,65.076-11.353,83.228h-15.73
		c3.266-17.75,7.665-45.781,11.713-84.897c11.579-111.939,11.579-230.265,0-342.205C289.184,45.782,284.785,17.75,281.52,0h15.731
		c3.245,18.152,7.469,45.699,11.353,83.228C320.295,196.26,320.295,315.74,308.603,428.771z"/>
</g>
<path style="fill:#E8E8EA;" d="M473.955,127.887H38.045c2.029-8.684,4.286-17.338,6.737-25.94
	c3.987-14.01,8.128-26.455,12.197-37.416h398.04c4.069,10.961,8.21,23.406,12.197,37.416
	C469.669,110.549,471.925,119.203,473.955,127.887z"/>
<path style="fill:#D6D6D8;" d="M473.955,127.887h-38.034c-2.359-10.446-5.017-20.841-7.963-31.173
	c-3.369-11.775-6.82-22.489-10.261-32.183c0,0,36.904,0,37.32,0c0.283,0,3.795,10.678,4.125,11.649
	c2,5.878,3.905,11.787,5.702,17.73c3.078,10.176,5.885,20.45,8.348,30.752c0.227,0.948,0.453,1.895,0.67,2.843
	C473.893,127.63,473.924,127.764,473.955,127.887z"/>
<path style="fill:#E8E8EA;" d="M473.955,384.874H38.045c2.029,8.684,4.286,17.338,6.737,25.94
	c3.987,14.01,8.128,26.455,12.197,37.416h398.04c4.069-10.961,8.21-23.406,12.197-37.416
	C469.669,402.212,471.925,393.559,473.955,384.874z"/>
<path style="fill:#D6D6D8;" d="M473.955,384.874h-38.034c-2.359,10.446-5.017,20.841-7.963,31.173
	c-3.369,11.775-6.82,22.489-10.261,32.183c0,0,36.904,0,37.32,0c0.283,0,3.795-10.677,4.125-11.649
	c2-5.878,3.905-11.787,5.702-17.73c3.078-10.176,5.885-20.45,8.348-30.752c0.227-0.948,0.453-1.896,0.67-2.843
	C473.893,385.132,473.924,384.998,473.955,384.874z"/>
<g>
</g>
<g>
</g>
<g>
</g>
<g>
</g>
<g>
</g>
<g>
</g>
<g>
</g>
<g>
</g>
<g>
</g>
<g>
</g>
<g>
</g>
<g>
</g>
<g>
</g>
<g>
</g>
<g>
</g>
</svg>
